<svg width="32" height="32" viewBox="0 0 32 32" fill="none" xmlns="http://www.w3.org/2000/svg">
<circle cx="16" cy="16" r="16" fill="#EEEEEE"/>
<path fill-rule="evenodd" clip-rule="evenodd" d="M21.7406 10.2594C21.228 9.74686 20.397 9.74686 19.8844 10.2594L16 14.1438L12.1156 10.2594L12.0159 10.1693C11.5004 9.74886 10.74 9.77889 10.2594 10.2594C9.74686 10.772 9.74686 11.603 10.2594 12.1156L14.1438 16L10.2594 19.8844L10.1693 19.9841C9.74886 20.4996 9.77889 21.26 10.2594 21.7406C10.772 22.2531 11.603 22.2531 12.1156 21.7406L16 17.8562L19.8844 21.7406L19.9841 21.8307C20.4996 22.2511 21.26 22.2211 21.7406 21.7406C22.2531 21.228 22.2531 20.397 21.7406 19.8844L17.8562 16L21.7406 12.1156L21.8307 12.0159C22.2511 11.5004 22.2211 10.74 21.7406 10.2594Z" fill="black"/>
</svg>
