<svg width="40" height="40" viewBox="0 0 40 40" fill="none" xmlns="http://www.w3.org/2000/svg">
<path d="M11.1059 33.3521C11.1088 31.5628 9.64874 30.1113 7.84203 30.1085C6.03532 30.1057 4.56966 31.5517 4.56684 33.3409C4.56402 35.1302 6.02404 36.5817 7.83076 36.5845C9.63747 36.5873 11.1031 35.1413 11.1059 33.3521Z" stroke="#333333" stroke-width="1.6" stroke-miterlimit="10" stroke-linecap="round"/>
<path d="M9.16395 33.3493C9.16395 32.6235 8.57205 32.0345 7.83922 32.0317C7.10639 32.0317 6.51167 32.6179 6.50885 33.3437C6.50885 34.0694 7.10075 34.6584 7.83358 34.6612C8.56641 34.6612 9.16114 34.075 9.16395 33.3493Z" fill="#DDDDDD"/>
<path d="M33.4573 33.3911C33.4573 32.6654 32.8654 32.0764 32.1326 32.0736C31.3997 32.0736 30.805 32.6598 30.8022 33.3855C30.8022 34.1113 31.3941 34.7003 32.1269 34.7031C32.8597 34.7031 33.4545 34.1169 33.4573 33.3911Z" fill="#DDDDDD"/>
<path d="M14.8913 13.634L10.1617 13.6423C8.6115 13.7456 7.34877 14.932 7.03309 16.4393L5.88593 21.9103C3.47604 23.842 2.69247 24.269 1.7257 25.366C1.32264 25.8238 1.10843 26.4128 1.10843 27.0185L1.09998 31.909C1.09998 32.6961 1.74261 33.3353 2.53745 33.3381H3.45067" stroke="#333333" stroke-width="1.6" stroke-miterlimit="10" stroke-linecap="round"/>
<path d="M36.5155 33.3549C37.8515 33.1371 38.8718 31.9927 38.8747 30.6082L38.9 18.5858" stroke="#333333" stroke-width="1.6" stroke-miterlimit="10" stroke-linecap="round"/>
<path d="M12.8196 33.3549L27.1493 33.38" stroke="#333333" stroke-width="1.6" stroke-miterlimit="10" stroke-linecap="round"/>
<path d="M28.863 33.3828C28.8659 31.5935 30.3315 30.1476 32.1382 30.1504C33.9449 30.1532 35.405 31.6047 35.4022 33.3939C35.3993 35.1832 33.9337 36.6291 32.127 36.6263C30.3202 36.6235 28.8602 35.172 28.863 33.3828Z" stroke="#333333" stroke-width="1.6" stroke-miterlimit="10" stroke-linecap="round"/>
<path d="M26.9013 21.3297L26.89 27.0659" stroke="#333333" stroke-width="1.6" stroke-miterlimit="10" stroke-linecap="round"/>
<path d="M29.7904 24.202L23.9982 24.1937" stroke="#333333" stroke-width="1.6" stroke-miterlimit="10" stroke-linecap="round"/>
<path d="M5.88879 21.9103L14.8913 21.9689" stroke="#333333" stroke-width="1.6" stroke-miterlimit="10" stroke-linecap="round"/>
<path d="M20.6044 6.65645L20.7707 6.65674C21.5768 6.65814 22.2324 7.30686 22.231 8.10798L22.2293 9.07379L19.1402 9.06845L19.1419 8.10264C19.1433 7.30432 19.7983 6.65506 20.6073 6.65646L20.6044 6.65645Z" stroke="#333333" stroke-width="1.6" stroke-miterlimit="10" stroke-linecap="round"/>
<path d="M18.6006 5.75674L17.8142 4.97516" stroke="#333333" stroke-width="1.6" stroke-miterlimit="10" stroke-linecap="round"/>
<path d="M20.6891 4.90536V3.79999" stroke="#333333" stroke-width="1.6" stroke-miterlimit="10" stroke-linecap="round"/>
<path d="M22.7721 5.7651L23.5641 4.98352" stroke="#333333" stroke-width="1.6" stroke-miterlimit="10" stroke-linecap="round"/>
<path d="M38.9 18.583V11.3059C38.9 10.1615 37.9642 9.23474 36.8086 9.23474H16.9827C15.8271 9.23474 14.8913 10.1615 14.8913 11.3059V13.6311" stroke="#333333" stroke-width="1.6" stroke-miterlimit="10" stroke-linecap="round"/>
<path d="M14.8913 13.634V21.9103" stroke="#333333" stroke-width="1.6" stroke-miterlimit="10" stroke-linecap="round"/>
<path d="M14.8913 21.9689L20.3396 33.3549" stroke="#333333" stroke-width="1.6" stroke-miterlimit="10" stroke-linecap="round"/>
<path d="M22.8848 13.634H18.4935V17.9829H22.8848V13.634Z" fill="#DDDDDD"/>
<path d="M29.0913 13.634H24.7V17.9829H29.0913V13.634Z" fill="#DDDDDD"/>
<path d="M35.2978 13.634H30.9065V17.9829H35.2978V13.634Z" fill="#DDDDDD"/>
</svg>
