<svg width="40" height="40" viewBox="0 0 40 40" fill="none" xmlns="http://www.w3.org/2000/svg">
<path d="M30.879 3.63064C32.3583 3.10926 33.9994 3.60236 34.9562 4.85434C35.913 6.10746 35.9718 7.83784 35.0964 9.15202C34.2244 10.4651 32.615 11.0668 31.1074 10.6438" stroke="#333333" stroke-width="1.8" stroke-linecap="round" stroke-linejoin="round"/>
<path d="M9.12104 3.63064C7.64511 3.10926 6.00065 3.60236 5.04384 4.85434C4.08702 6.10746 4.0316 7.83784 4.90359 9.15202C5.77785 10.4651 7.38498 11.0668 8.89258 10.6438" stroke="#333333" stroke-width="1.8" stroke-linecap="round" stroke-linejoin="round"/>
<path d="M34.5977 9.74121C36.6889 10.2592 38.3005 11.9421 38.7439 14.0717C39.1895 16.2002 38.3865 18.3988 36.6821 19.7254" stroke="#333333" stroke-width="1.8" stroke-linecap="round" stroke-linejoin="round"/>
<path d="M5.4046 9.74121C3.3134 10.2592 1.69835 11.9421 1.25614 14.0717C0.813922 16.2002 1.61353 18.3988 3.32132 19.7254" stroke="#333333" stroke-width="1.8" stroke-linecap="round" stroke-linejoin="round"/>
<path d="M37.5077 18.9213C38.7269 20.0082 39.2573 21.6877 38.8807 23.2869C38.5041 24.8883 37.2871 26.1482 35.7162 26.5667" stroke="#333333" stroke-width="1.8" stroke-linecap="round" stroke-linejoin="round"/>
<path d="M2.49457 18.9213C1.2731 20.0082 0.742672 21.6877 1.11929 23.2869C1.49591 24.8883 2.71285 26.1482 4.28719 26.5667" stroke="#333333" stroke-width="1.8" stroke-linecap="round" stroke-linejoin="round"/>
<path d="M36.7318 26.1527C37.7124 27.5687 37.8583 29.4122 37.1084 30.965C36.3586 32.5201 34.834 33.5391 33.124 33.6284C31.743 33.7008 30.4175 33.1557 29.4844 32.1683" stroke="#333333" stroke-width="1.8" stroke-linecap="round" stroke-linejoin="round"/>
<path d="M3.27156 26.1527C2.28761 27.5687 2.14284 29.4122 2.89268 30.965C3.64253 32.5201 5.16936 33.5391 6.87715 33.6284C8.26035 33.7008 9.5836 33.1557 10.5189 32.1683" stroke="#333333" stroke-width="1.8" stroke-linecap="round" stroke-linejoin="round"/>
<path d="M32.4239 33.6148C32.5992 35.421 31.769 37.1751 30.2795 38.1805C28.7787 39.1894 26.8549 39.2708 25.2693 38.4022C23.7028 37.5325 22.7189 35.8496 22.746 34.0423V32.718" stroke="#333333" stroke-width="1.8" stroke-linecap="round" stroke-linejoin="round"/>
<path d="M7.57835 33.6148C7.40078 35.421 8.23319 37.1751 9.72044 38.1805C11.2235 39.1894 13.1473 39.2708 14.7307 38.4022C16.3005 37.5325 17.2834 35.8496 17.2539 34.0423V32.718" stroke="#333333" stroke-width="1.8" stroke-linecap="round" stroke-linejoin="round"/>
<path d="M32.1242 19.4223C32.1672 19.6089 32.1954 19.8012 32.2068 19.9957C32.2938 21.3947 31.5463 22.7112 30.3112 23.3456" stroke="#333333" stroke-width="1.8" stroke-linecap="round" stroke-linejoin="round"/>
<path d="M7.87805 19.4223C7.83281 19.6089 7.8068 19.8012 7.79323 19.9957C7.7084 21.3947 8.45372 22.7112 9.69102 23.3456" stroke="#333333" stroke-width="1.8" stroke-linecap="round" stroke-linejoin="round"/>
<path d="M22.7461 23.8874V23.349C22.7461 21.0328 24.5059 19.1 26.7995 18.9213C25.75 19.0039 24.7264 18.6306 23.9472 17.9136C23.1837 17.1954 22.7461 16.1877 22.7461 15.1269V13.2913C22.7461 11.5395 23.7696 9.95385 25.3677 9.26396C23.5785 8.53336 22.5153 6.68423 22.7461 4.75366C22.9926 2.82197 24.4799 1.30421 26.3912 1.04296C28.2868 0.767003 30.145 1.84255 30.8812 3.63627" stroke="#333333" stroke-width="1.8" stroke-linecap="round" stroke-linejoin="round"/>
<path d="M17.254 23.8874V23.349C17.254 21.0328 15.4941 19.1 13.2005 18.9213C14.2523 19.0039 15.2759 18.6306 16.0529 17.9136C16.8185 17.1954 17.254 16.1877 17.254 15.1269V13.2913C17.254 11.5395 16.2304 9.95385 14.6346 9.26396C16.4216 8.53336 17.4869 6.68423 17.254 4.75366C17.0097 2.82197 15.5235 1.30421 13.6122 1.04296C11.7144 0.767003 9.85843 1.84255 9.12216 3.63627" stroke="#333333" stroke-width="1.8" stroke-linecap="round" stroke-linejoin="round"/>
<path d="M22.746 23.8907C22.746 24.955 23.1803 25.9717 23.9494 26.7001C24.7151 27.4307 25.7465 27.8073 26.7961 27.7417" stroke="#333333" stroke-width="1.8" stroke-linecap="round" stroke-linejoin="round"/>
<path d="M17.254 23.8907C17.254 24.955 16.8219 25.9717 16.0528 26.7001C15.2872 27.4307 14.2557 27.8073 13.2028 27.7417" stroke="#333333" stroke-width="1.8" stroke-linecap="round" stroke-linejoin="round"/>
<path d="M22.746 32.7169C22.746 30.6223 23.8408 28.6861 25.6278 27.623" stroke="#333333" stroke-width="1.8" stroke-linecap="round" stroke-linejoin="round"/>
<path d="M17.254 32.7169C17.254 30.6223 16.1592 28.6861 14.3756 27.623" stroke="#333333" stroke-width="1.8" stroke-linecap="round" stroke-linejoin="round"/>
</svg>
