<svg width="40" height="40" viewBox="0 0 40 40" fill="none" xmlns="http://www.w3.org/2000/svg">
<path d="M11.9942 29.8036C10.9407 30.8599 10.7154 32.4855 11.4492 33.761C12.0125 34.7412 11.775 35.971 10.8829 36.6864C10.4932 36.9999 9.99083 37.1704 9.4702 37.1704C9.23272 37.1704 9.00133 37.1308 8.77907 37.0608C9.48542 36.3546 9.66201 35.2769 9.184 34.3789C8.49288 33.0791 8.60248 31.2435 9.68941 30.2237L17.371 24.4246L11.9942 29.8006V29.8036Z" fill="#DDDDDD"/>
<path d="M38.0866 6.88133C37.1945 5.78849 35.8944 5.29229 34.6248 5.37448C34.7101 4.10508 34.2108 2.80524 33.1208 1.91331C31.6441 0.707835 29.4672 0.692614 27.9784 1.88591C26.3465 3.19184 26.0025 5.40797 26.9433 7.09746C27.2721 7.69107 27.1929 8.4247 26.7149 8.90263L20.5617 15.0548C20.0107 15.6058 20.0107 16.5008 20.5617 17.0518C20.9088 17.3988 21.4081 17.5388 21.8862 17.4262L23.6216 17.0152L23.0279 19.5175L23.9443 20.4338L31.0961 13.2831C31.5741 12.8052 32.3109 12.7261 32.9016 13.0548C34.5913 13.9955 36.8078 13.6515 38.114 12.0198C39.3074 10.5312 39.2922 8.35773 38.0866 6.87828V6.88133Z" stroke="#333333" stroke-width="1.6" stroke-miterlimit="10"/>
<path d="M13.2851 31.0943L19.7275 24.653C20.1203 24.2603 20.1203 23.6271 19.7275 23.2344C19.2038 22.7108 18.9877 21.9498 19.1582 21.2283L19.4778 19.8889L16.9752 20.4825L16.0557 19.5632L8.90389 26.7138C8.42589 27.1918 7.68909 27.2709 7.09844 26.9421C5.40868 26.0015 3.19219 26.3455 1.88605 27.9771C0.692565 29.4657 0.707788 31.6423 1.91346 33.1187C2.80553 34.2085 4.10558 34.7077 5.37518 34.6255C5.28994 35.8949 5.78925 37.1948 6.87922 38.0867C8.35586 39.2922 10.5328 39.3074 12.0216 38.1141C13.6535 36.8082 13.9975 34.592 13.0568 32.9025C12.7279 32.3089 12.8071 31.5753 13.2851 31.0974V31.0943Z" stroke="#333333" stroke-width="1.6" stroke-miterlimit="10"/>
<path d="M6.83661 15.7397H10.8944" stroke="#333333" stroke-width="1.6" stroke-miterlimit="10" stroke-linecap="round"/>
<path d="M12.3682 12.2908L9.57373 9.49628" stroke="#333333" stroke-width="1.6" stroke-miterlimit="10" stroke-linecap="round"/>
<path d="M15.9248 10.6195V7.02441" stroke="#333333" stroke-width="1.6" stroke-miterlimit="10" stroke-linecap="round"/>
</svg>
