<svg width="40" height="40" viewBox="0 0 40 40" fill="none" xmlns="http://www.w3.org/2000/svg">
<path d="M23.8731 27.6843C25.1046 31.0129 26.0267 34.2491 26.6195 36.5556C27.009 38.0724 28.8905 38.5135 29.8556 37.3036C34.3574 31.6625 34.7584 25.5566 34.6553 22.7048C34.6209 21.7542 34.9159 20.8214 35.5058 20.0943C36.6341 18.7116 37.29 16.8223 37.668 15.2847C38.7075 11.0323 37.2728 6.46994 33.8305 3.93697C32.1724 2.71817 30.1477 2 27.9626 2C24.738 2 21.8628 3.5615 19.9984 5.99911C18.1341 3.56448 15.2589 2.00298 12.0343 2.00298C9.84919 2.00298 7.82449 2.72115 6.16636 3.93995C2.71264 6.48186 1.28648 11.0621 2.34035 15.3264C2.71837 16.8551 3.37131 18.7206 4.48532 20.0884C5.07812 20.8185 5.37596 21.7571 5.34159 22.7137C5.2385 25.5655 5.64515 31.6566 10.127 37.2857C11.0949 38.5015 12.9822 38.0784 13.3745 36.5497C13.9673 34.2432 14.8894 31.0099 16.1209 27.6813C17.4898 23.9832 22.5071 23.9832 23.8731 27.6813V27.6843Z" stroke="#333333" stroke-width="1.6" stroke-miterlimit="10" stroke-linecap="round"/>
<path d="M25.6343 4.84884C26.3761 4.60746 27.1607 4.4823 27.9626 4.4823C29.5835 4.4823 31.1357 4.99485 32.453 5.96334C33.9565 7.06891 34.9789 8.73768 35.3998 10.6031" stroke="#333333" stroke-width="1.6" stroke-miterlimit="10" stroke-linecap="round"/>
<path d="M19.9984 6.00208C19.9984 6.00208 21.2671 7.70065 21.8627 9.39923" stroke="#333333" stroke-width="1.6" stroke-miterlimit="10" stroke-linecap="round"/>
<path d="M7.12 23.9772C7.19445 26.9632 7.9734 31.6715 11.5016 36.1027C11.5245 36.1325 11.5359 36.1355 11.5617 36.1355C11.6333 36.1355 11.6419 36.0938 11.6476 36.0729C12.1087 34.2849 12.8161 31.746 13.7497 29.0014C10.0983 28.1939 7.12 23.9772 7.12 23.9772Z" fill="#DDDDDD"/>
<path d="M32.8768 23.9772C32.8024 26.9632 32.0234 31.6715 28.4953 36.1027C28.4724 36.1325 28.4609 36.1355 28.4351 36.1355C28.3635 36.1355 28.3549 36.0938 28.3492 36.0729C27.8881 34.2849 27.1808 31.746 26.2472 29.0014C29.8985 28.1939 32.8768 23.9772 32.8768 23.9772Z" fill="#DDDDDD"/>
</svg>
