<svg width="40" height="40" viewBox="0 0 40 40" fill="none" xmlns="http://www.w3.org/2000/svg">
<path d="M35.7467 35.7444C32.7422 38.7489 27.8671 38.7489 24.8627 35.7444L4.25559 15.1373C1.24814 12.1329 1.24814 7.25778 4.25559 4.25334C7.26004 1.24889 12.1351 1.24889 15.1396 4.25334L35.7467 24.8574C38.7511 27.8619 38.7511 32.737 35.7467 35.7414V35.7444Z" stroke="#333333" stroke-width="1.6" stroke-miterlimit="10" stroke-linecap="round"/>
<path d="M32.1618 18.7222L35.7466 15.1373C38.7511 12.1329 38.7511 7.25779 35.7466 4.25334C32.7422 1.24889 27.8671 1.24889 24.8627 4.25334L21.2778 7.83822" stroke="#333333" stroke-width="1.6" stroke-miterlimit="10" stroke-linecap="round"/>
<path d="M7.84048 21.2725L4.25559 24.8574C1.25115 27.8619 1.25115 32.7369 4.25559 35.7414C7.26004 38.7458 12.1351 38.7458 15.1396 35.7414L18.7245 32.1565" stroke="#333333" stroke-width="1.6" stroke-miterlimit="10" stroke-linecap="round"/>
<path d="M7.84048 21.2725L4.25559 24.8574C1.25115 27.8619 1.25115 32.7369 4.25559 35.7414C7.26004 38.7458 12.1351 38.7458 15.1396 35.7414L18.7245 32.1565" stroke="#333333" stroke-width="1.6" stroke-miterlimit="10" stroke-linecap="round"/>
<path d="M28.6551 12.6561C27.5483 12.6561 26.4897 12.4516 25.5123 12.0787L30.8836 17.45L34.4715 13.8621C35.897 12.4336 36.4384 10.4517 36.0925 8.6051C34.5166 11.0411 31.7738 12.6561 28.6551 12.6561Z" fill="#DDDDDD"/>
<path d="M11.3472 27.3416C12.4539 27.3416 13.5125 27.5461 14.49 27.919L9.11865 22.5477L5.53075 26.1356C4.10522 27.5641 3.56388 29.546 3.90974 31.3926C5.48564 28.9566 8.22844 27.3416 11.3472 27.3416Z" fill="#DDDDDD"/>
<path d="M27.1213 27.5371L27.5393 27.119" stroke="#333333" stroke-width="1.6" stroke-miterlimit="10" stroke-linecap="round"/>
<path d="M30.2731 30.6889L30.6911 30.2709" stroke="#333333" stroke-width="1.6" stroke-miterlimit="10" stroke-linecap="round"/>
<path d="M33.4249 33.8437L33.846 33.4227" stroke="#333333" stroke-width="1.6" stroke-miterlimit="10" stroke-linecap="round"/>
<path d="M24.3153 30.343L24.7364 29.922" stroke="#333333" stroke-width="1.6" stroke-miterlimit="10" stroke-linecap="round"/>
<path d="M27.4672 33.4948L27.8882 33.0738" stroke="#333333" stroke-width="1.6" stroke-miterlimit="10" stroke-linecap="round"/>
<path d="M29.9243 24.7341L30.3453 24.313" stroke="#333333" stroke-width="1.6" stroke-miterlimit="10" stroke-linecap="round"/>
<path d="M33.076 27.8859L33.4971 27.4649" stroke="#333333" stroke-width="1.6" stroke-miterlimit="10" stroke-linecap="round"/>
<path d="M12.881 12.4576L12.46 12.8787" stroke="#333333" stroke-width="1.6" stroke-miterlimit="10" stroke-linecap="round"/>
<path d="M9.72614 9.30585L9.30811 9.72388" stroke="#333333" stroke-width="1.6" stroke-miterlimit="10" stroke-linecap="round"/>
<path d="M6.57435 6.15405L6.15631 6.57209" stroke="#333333" stroke-width="1.6" stroke-miterlimit="10" stroke-linecap="round"/>
<path d="M15.6839 9.65472L15.2629 10.0728" stroke="#333333" stroke-width="1.6" stroke-miterlimit="10" stroke-linecap="round"/>
<path d="M12.5321 6.49994L12.1111 6.92098" stroke="#333333" stroke-width="1.6" stroke-miterlimit="10" stroke-linecap="round"/>
<path d="M10.075 15.2606L9.65698 15.6817" stroke="#333333" stroke-width="1.6" stroke-miterlimit="10" stroke-linecap="round"/>
<path d="M6.92318 12.1088L6.50214 12.5299" stroke="#333333" stroke-width="1.6" stroke-miterlimit="10" stroke-linecap="round"/>
</svg>
