<svg width="40" height="40" viewBox="0 0 40 40" fill="none" xmlns="http://www.w3.org/2000/svg">
<path d="M38.9493 18.3989L38.1248 16.4144C37.9897 16.0762 37.6092 15.9141 37.2756 16.051L27.0954 20.2968C26.7618 20.4337 26.6018 20.8195 26.7369 21.1577L27.5614 23.1422C27.6965 23.4804 28.077 23.6425 28.4107 23.5056L38.5936 19.2598C38.9272 19.1228 39.0872 18.7371 38.9521 18.3989H38.9493Z" stroke="#333333" stroke-width="1.6" stroke-miterlimit="10"/>
<path d="M16.3775 25.0709C19.5595 27.1812 24.7875 24.6236 24.7875 24.6236C25.1762 24.4643 25.3637 24.0143 25.2038 23.6202L24.7351 22.4518C24.5779 22.0577 24.134 21.8677 23.7452 22.0298L16.3775 25.0709V25.0709Z" stroke="#333333" stroke-width="1.6" stroke-miterlimit="10"/>
<path d="M27.4097 22.955L25.2838 23.8103" stroke="#333333" stroke-width="1.6" stroke-miterlimit="10" stroke-linecap="round"/>
<path d="M24.6634 22.273L26.7921 21.4149" stroke="#333333" stroke-width="1.6" stroke-miterlimit="10" stroke-linecap="round"/>
<path d="M27.1395 18.4101C27.3711 17.5911 27.4428 16.4731 26.6901 15.4361" stroke="#333333" stroke-width="1.6" stroke-miterlimit="10" stroke-linecap="round"/>
<path d="M5.63206 2C6.34898 7.42252 6.80946 15.1175 4.81588 21.3869C4.62563 21.9823 4.27544 23.145 4.08518 24.5789C3.47029 29.2495 6.23868 33.6938 10.6312 35.2339C13.2837 36.1646 16.9621 36.6706 21.4593 35.3233C21.4593 35.3233 26.5825 39.5495 30.5696 34.5826C31.9704 32.8357 32.2075 30.1719 31.7277 27.866C31.5265 26.8933 31.2121 25.778 30.7268 24.6572" stroke="#333333" stroke-width="1.6" stroke-miterlimit="10" stroke-linecap="round"/>
<path d="M9.68261 2C9.68261 2 8.12746 15.7827 10.3637 21.0012C10.3637 21.0012 11.7093 24.1624 13.6449 24.987" stroke="#333333" stroke-width="1.6" stroke-miterlimit="10" stroke-linecap="round"/>
<path d="M13.645 24.987C13.7911 20.526 15.247 17.703 17.326 15.5507C18.418 14.4215 19.0632 12.9038 18.5806 11.386C18.1808 10.1282 17.5135 9.2142 17.5135 9.2142C17.5135 9.2142 14.4556 4.82029 9.19458 9.2142" stroke="#333333" stroke-width="1.6" stroke-miterlimit="10" stroke-linecap="round"/>
<path d="M15.1257 18.6142C15.1257 18.6142 13.4933 16.5066 13.2341 13.8708C13.1321 12.8283 13.3141 11.7689 13.8214 10.8549C14.4584 9.70613 15.7157 8.52939 17.9768 9.97167" stroke="#333333" stroke-width="1.6" stroke-miterlimit="10" stroke-linecap="round"/>
<path d="M20.8362 17.5967C21.3132 17.1774 21.8206 16.8336 22.3362 16.5709C24.3491 15.5535 27.5945 15.2879 31.2452 14.9944" stroke="#333333" stroke-width="1.6" stroke-miterlimit="10" stroke-linecap="round"/>
<path d="M20.3288 33.6826C18.6827 31.5863 17.3839 29.3949 16.769 26.9911" stroke="#333333" stroke-width="1.6" stroke-linecap="round" stroke-linejoin="round"/>
<path d="M13.9703 2C13.9703 2 13.6532 4.45131 15.2029 4.56591C18.1395 4.78393 19.9235 6.77685 20.7893 9.09958C20.9658 9.57196 21.1174 9.98843 21.2774 10.335C21.9529 11.7941 23.5411 12.5823 25.0991 12.2553C26.9851 11.8584 28.8959 11.5816 31.1983 11.4531" stroke="#333333" stroke-width="1.6" stroke-miterlimit="10" stroke-linecap="round"/>
<path d="M11.9822 2V4.35628" stroke="#333333" stroke-width="1.6" stroke-miterlimit="10" stroke-linecap="round"/>
<path d="M19.2231 27.9135C19.2231 27.9135 21.5668 34.1549 25.008 34.4317C25.9952 34.5099 26.8306 33.6071 26.5659 32.64C26.4281 32.1341 26.02 31.6393 25.0494 31.3822C25.0494 31.3822 20.7148 30.5912 19.2231 27.9135Z" fill="#DDDDDD"/>
<path d="M37.4244 18.262L37.1459 17.5911L32.1799 19.6623C32.4639 19.7909 32.7535 19.9306 33.043 20.09L37.4272 18.262H37.4244Z" fill="#DDDDDD"/>
</svg>
