<svg width="40" height="40" viewBox="0 0 40 40" fill="none" xmlns="http://www.w3.org/2000/svg">
<path d="M33.1594 2.71788L30.765 1.20638C30.1729 0.833804 29.3737 0.979199 28.9725 1.53352L13.9072 22.4613C13.5092 23.0156 13.6645 23.7668 14.2567 24.1394L16.6511 25.6509C17.2432 26.0235 18.0424 25.8781 18.4436 25.3238L33.5089 4.39598C33.9069 3.84166 33.7516 3.09046 33.1594 2.71788V2.71788Z" stroke="#333333" stroke-width="1.6" stroke-miterlimit="10"/>
<path d="M2 39C9.52616 38.9182 15.3374 29.6372 15.3374 29.6372C15.8001 28.992 15.6189 28.1166 14.9297 27.6834L12.888 26.3961C12.1988 25.9629 11.2637 26.1326 10.801 26.7777L2 39Z" stroke="#333333" stroke-width="1.6" stroke-miterlimit="10"/>
<path d="M16.8096 25.7479L15.263 27.8955" stroke="#333333" stroke-width="1.6" stroke-miterlimit="10" stroke-linecap="round"/>
<path d="M12.5742 26.1992L14.1208 24.0516" stroke="#333333" stroke-width="1.6" stroke-miterlimit="10" stroke-linecap="round"/>
<path d="M19.9515 18.6447L27.4615 8.21259" stroke="#333333" stroke-width="1.6" stroke-miterlimit="10" stroke-linecap="round"/>
<path d="M10.1021 39H13.6937" stroke="#333333" stroke-width="1.6" stroke-miterlimit="10" stroke-linecap="round"/>
<path d="M18.2042 39H21.7958" stroke="#333333" stroke-width="1.6" stroke-miterlimit="10" stroke-linecap="round"/>
<path d="M26.3096 39H29.8979" stroke="#333333" stroke-width="1.6" stroke-miterlimit="10" stroke-linecap="round"/>
<path d="M34.4116 39H38" stroke="#333333" stroke-width="1.6" stroke-miterlimit="10" stroke-linecap="round"/>
<path d="M14.2696 34.1111C13.6322 34.8199 12.8977 35.5711 12.0726 36.3072H38V34.1111H14.2696Z" fill="#DDDDDD"/>
</svg>
