<svg width="40" height="40" viewBox="0 0 40 40" fill="none" xmlns="http://www.w3.org/2000/svg">
<path d="M23.8205 23.406H20.7746V20.3478H19.2254V23.406H16.1796V24.9616H19.2254V28.0198H20.7746V24.9616H23.8205V23.406Z" fill="#333333" stroke="#333333" stroke-width="1.6" stroke-miterlimit="10"/>
<path d="M37.8074 15.3408V34.4915C37.8074 35.325 37.1351 36 36.3049 36H3.69509C2.86493 36 2.19263 35.325 2.19263 34.4915V15.3408" stroke="#333333" stroke-width="1.6" stroke-miterlimit="10" stroke-linecap="round"/>
<path d="M17.7902 16.4707C12.3562 16.415 6.93385 16.1479 1.55831 15.2351C1.23677 15.1793 1 14.8976 1 14.5689V9.22134C1 8.38781 1.67231 7.71277 2.50246 7.71277H37.4975C38.3277 7.71277 39 8.38781 39 9.22134V14.5689C39 14.8976 38.7632 15.1793 38.4417 15.2351C33.0662 16.1508 27.6409 16.4091 22.2098 16.4707C21.1049 16.4825 18.898 16.4825 17.7931 16.4707H17.7902Z" stroke="#333333" stroke-width="1.6" stroke-miterlimit="10" stroke-linecap="round"/>
<path d="M28.2811 7.71274V5.76685C28.2811 4.78951 27.4948 4 26.5214 4H13.4757C12.5052 4 11.716 4.79244 11.716 5.76685V7.7098" stroke="#333333" stroke-width="1.6" stroke-miterlimit="10" stroke-linecap="round"/>
<path d="M3.7243 30.5645V34.465H36.2757V30.5645C25.3872 31.4244 14.6128 31.4244 3.72137 30.5645H3.7243Z" fill="#DDDDDD"/>
</svg>
