<svg width="40" height="40" viewBox="0 0 40 40" fill="none" xmlns="http://www.w3.org/2000/svg">
<path d="M18.5309 8.38948L22.7598 15.5081L17.4455 24.4505H6.82283L1.50854 15.5081L6.82283 6.56573H15.2775" stroke="#333333" stroke-width="1.6" stroke-miterlimit="10"/>
<path d="M8.28003 21.9968H15.9883" stroke="#333333" stroke-width="1.6" stroke-miterlimit="10" stroke-linecap="round"/>
<path d="M31.2055 33.393H22.7538L17.4425 24.4506L22.7538 15.5082H33.3794L38.6907 24.4506L34.4619 31.5663" stroke="#333333" stroke-width="1.6" stroke-miterlimit="10"/>
<path d="M24.211 17.962H31.9222" stroke="#333333" stroke-width="1.6" stroke-miterlimit="10" stroke-linecap="round"/>
<path d="M33.3794 15.5082L36.2284 10.5803" stroke="#333333" stroke-width="1.6" stroke-miterlimit="10"/>
<path d="M37.1116 10.7942C38.1545 10.7942 39 9.97251 39 8.9589C39 7.94529 38.1545 7.1236 37.1116 7.1236C36.0687 7.1236 35.2232 7.94529 35.2232 8.9589C35.2232 9.97251 36.0687 10.7942 37.1116 10.7942Z" stroke="#333333" stroke-width="1.6" stroke-miterlimit="10"/>
<path d="M6.8228 24.4506L3.7746 29.6559" stroke="#333333" stroke-width="1.6" stroke-miterlimit="10"/>
<path d="M1 31.2773C1 30.2628 1.84458 29.442 2.8884 29.442C3.93223 29.442 4.7768 30.2628 4.7768 31.2773C4.7768 32.2918 3.93223 33.1126 2.8884 33.1126C1.84458 33.1126 1 32.2918 1 31.2773Z" stroke="#333333" stroke-width="1.6" stroke-miterlimit="10"/>
<path d="M17.4454 2.00214C20.0357 2.00214 22.1412 4.04843 22.1412 6.56582" stroke="#333333" stroke-width="1.6" stroke-miterlimit="10" stroke-linecap="round"/>
<path d="M19.4512 7.37326C19.9101 6.29671 19.384 5.0625 18.2763 4.61658C17.1686 4.17065 15.8987 4.68188 15.4399 5.75843C14.9811 6.83498 15.5071 8.06919 16.6148 8.51512C17.7225 8.96104 18.9924 8.44981 19.4512 7.37326Z" stroke="#333333" stroke-width="1.6" stroke-miterlimit="10"/>
<path d="M38.0751 33.3929C38.0751 35.9075 35.9696 37.9566 33.3794 37.9566" stroke="#333333" stroke-width="1.6" stroke-miterlimit="10" stroke-linecap="round"/>
<path d="M33.3794 35.5028C34.5784 35.5028 35.5503 34.5582 35.5503 33.393C35.5503 32.2277 34.5784 31.2831 33.3794 31.2831C32.1804 31.2831 31.2085 32.2277 31.2085 33.393C31.2085 34.5582 32.1804 35.5028 33.3794 35.5028Z" stroke="#333333" stroke-width="1.6" stroke-miterlimit="10"/>
<path d="M22.7538 33.3929L21.249 35.7485" stroke="#333333" stroke-width="1.6" stroke-miterlimit="10"/>
<path d="M21.8349 36.7861C21.8349 36.1156 21.2758 35.5722 20.5859 35.5722C19.8959 35.5722 19.3369 36.1156 19.3369 36.7861C19.3369 37.4566 19.8959 38 20.5859 38C21.2758 38 21.8349 37.4566 21.8349 36.7861Z" stroke="#333333" stroke-width="1.6" stroke-miterlimit="10"/>
<path d="M6.82279 6.56574L5.41913 4.17841" stroke="#333333" stroke-width="1.6" stroke-miterlimit="10"/>
<path d="M4.21476 4.35761C4.86306 4.58883 5.57976 4.26223 5.81767 3.63216C6.05558 3.00209 5.71953 2.30554 5.07123 2.07432C4.42293 1.8431 3.70623 2.1697 3.46832 2.79977C3.23041 3.42985 3.56646 4.12639 4.21476 4.35761Z" stroke="#333333" stroke-width="1.6" stroke-miterlimit="10"/>
<path d="M3.69727 15.5081L6.6176 20.3811L5.97227 16.3434L9.9959 9.7103L13.7073 8.4068H7.9142L3.69727 15.5081Z" fill="#DDDDDD"/>
<path d="M30.5126 29.786C31.3066 29.1877 32.2999 28.8293 33.3764 28.8293C33.5578 28.8293 33.7362 28.8408 33.9117 28.8611L36.5138 24.4795L33.5935 19.6036L34.2388 23.6413L30.5126 29.7831V29.786Z" fill="#DDDDDD"/>
</svg>
