<svg width="40" height="40" viewBox="0 0 40 40" fill="none" xmlns="http://www.w3.org/2000/svg">
<path d="M32.6376 29.074L33.4937 28.0238C35.4177 25.6967 33.7395 22.2019 30.7051 22.2159C27.6708 22.2299 26.0237 25.7387 27.9703 28.049L35.7793 37.3155L38 35.3552L29.8745 25.8339C29.0326 24.837 28.8631 23.616 29.188 22.5491" stroke="#333333" stroke-width="1.6" stroke-miterlimit="10" stroke-linecap="round"/>
<path d="M27.7499 34.966L30.7475 31.3451" stroke="#333333" stroke-width="1.6" stroke-miterlimit="10" stroke-linecap="round"/>
<path d="M14.8638 9.04012C14.8638 9.04012 18.5762 9.59179 23.7945 9.00091C23.7945 9.00091 24.3822 8.9365 25.3739 8.81049" stroke="#333333" stroke-width="1.6" stroke-miterlimit="10" stroke-linecap="round"/>
<path d="M10.5609 16.1448C10.5609 16.1448 9.04653 8.32612 13.4653 4.43921L13.454 2.01129" stroke="#333333" stroke-width="1.6" stroke-miterlimit="10" stroke-linecap="round"/>
<path d="M16.2228 2L16.2341 4.18709C16.2341 4.18709 19.7798 4.63795 19.8024 9.26976" stroke="#333333" stroke-width="1.6" stroke-miterlimit="10" stroke-linecap="round"/>
<path d="M25.2975 22.8852C24.5149 20.4292 22.6531 18.4298 20.2233 17.4273C20.2233 17.4273 20.2036 17.4161 20.2007 17.4048C20.1273 17.2228 19.4351 15.439 19.4436 12.5182C19.4436 12.5182 21.3167 12.4398 23.7775 12.213C23.7775 12.213 24.4471 12.1346 25.3908 12.0057" stroke="#333333" stroke-width="1.6" stroke-miterlimit="10" stroke-linecap="round"/>
<path d="M15.5419 7.28992C15.5419 7.28992 14.4683 8.6957 14.2196 10.5355C14.1095 11.3533 14.6943 12.1094 15.5164 12.2326C15.9233 12.2942 16.2312 12.325 16.2312 12.325C16.2312 12.325 16.1098 13.7924 15.2509 15.2374C15.2509 15.2374 15.2396 15.2374 15.217 15.229C13.3297 14.7865 11.3463 15.3298 9.94217 16.6516L8.67645 17.8417C5.66187 20.6785 4.88492 25.1955 6.91347 28.7912C7.55481 29.9281 8.46172 31.1295 9.71897 32.3756C9.71897 32.3756 14.6773 37.0942 19.6244 37.9428C21.1529 38.206 22.6842 37.5479 23.5205 36.2513C23.8708 35.7081 24.2465 35.0052 24.6138 34.1063C25.2439 32.5717 25.6422 30.9558 25.8089 29.3148" stroke="#333333" stroke-width="1.6" stroke-miterlimit="10" stroke-linecap="round"/>
<path d="M5.78619 24.571C-0.265559 19.2783 2.55689 14.7809 3.35645 13.7392C3.57964 13.4479 3.80002 13.1567 3.98931 12.8459C6.02351 9.50502 5.45563 6.20898 5.45563 6.20898" stroke="#333333" stroke-width="1.6" stroke-miterlimit="10" stroke-linecap="round"/>
<path d="M8.60017 6.19214C8.60017 6.19214 8.00403 10.4347 10.4196 11.0564" stroke="#333333" stroke-width="1.6" stroke-miterlimit="10" stroke-linecap="round"/>
<path d="M16.5985 22.5295C16.5985 22.5295 16.9686 25.0051 20.39 26.6713" stroke="#333333" stroke-width="1.6" stroke-miterlimit="10" stroke-linecap="round"/>
<path d="M15.2509 15.2374C15.2509 15.2374 11.0497 21.8714 14.8129 26.0888" stroke="#333333" stroke-width="1.6" stroke-miterlimit="10" stroke-linecap="round"/>
<path d="M18.4999 25.4475C18.4999 25.4475 16.1041 28.5167 19.7035 30.477" stroke="#333333" stroke-width="1.6" stroke-miterlimit="10" stroke-linecap="round"/>
</svg>
