<svg width="40" height="40" viewBox="0 0 40 40" fill="none" xmlns="http://www.w3.org/2000/svg">
<path d="M37 37.9934L35.6731 31.568C35.379 30.1512 34.5856 28.8635 33.4331 27.9399C32.6945 27.3539 31.9489 26.9766 31.2376 26.8243L25.5709 25.232C25.4478 25.1989 25.3316 25.1459 25.2255 25.0764C24.928 24.8811 24.7297 24.5699 24.6886 24.2257L24.4253 22.0541C26.0121 20.8624 27.1851 19.0781 27.7494 16.9959C28.7616 16.9098 29.5379 15.8207 29.5379 14.4436C29.5379 13.1724 28.8779 12.1462 27.9751 11.9277" stroke="#333333" stroke-width="1.6" stroke-miterlimit="10" stroke-linecap="round"/>
<path d="M11.9839 11.9443C11.1084 12.1859 10.4723 13.1989 10.4723 14.4469C10.4723 15.8207 11.2452 16.9065 12.2541 16.9992C12.8218 19.0781 13.9948 20.8623 15.5782 22.0574L15.3182 24.229C15.2772 24.5766 15.0823 24.8877 14.7813 25.083C14.6753 25.1526 14.559 25.2055 14.4359 25.2386L8.78636 26.8243C8.05452 26.9799 7.30557 27.3572 6.57031 27.9465C5.41098 28.8734 4.61758 30.1611 4.3269 31.5746L3 38" stroke="#333333" stroke-width="1.6" stroke-miterlimit="10" stroke-linecap="round"/>
<path d="M12.5824 8.03809C11.895 10.0806 11.9805 11.9443 11.9805 11.9443" stroke="#333333" stroke-width="1.6" stroke-miterlimit="10" stroke-linecap="round"/>
<path d="M27.9751 11.9277C27.9751 11.9277 28.0708 10.0574 27.3903 8.01489" stroke="#333333" stroke-width="1.6" stroke-miterlimit="10" stroke-linecap="round"/>
<path d="M27.6741 10.2262C26.0805 10.9843 24.4526 11.1664 22.6777 10.9843C20.8139 10.7923 19.3639 9.9614 17.7019 9.2563C16.5494 8.76637 15.2191 8.44527 14.029 8.84913C13.2971 9.0974 12.6268 9.59727 12.2883 10.2494" stroke="#333333" stroke-width="1.6" stroke-miterlimit="10" stroke-linecap="round"/>
<path d="M12.4387 8.50483V3.78097C12.4387 2.79779 13.5467 2 14.9147 2H24.9143C26.2822 2 27.3902 2.79779 27.3902 3.78097V8.14069" stroke="#333333" stroke-width="1.6" stroke-miterlimit="10" stroke-linecap="round"/>
<path d="M8.52643 37.765C8.84789 35.2756 10.9716 33.2629 10.9716 33.2629C15.7286 28.7642 23.5805 28.6417 28.5085 32.9848C28.5085 32.9848 30.4715 34.9082 31.4769 37.765" stroke="#333333" stroke-width="1.6" stroke-miterlimit="10" stroke-linecap="round"/>
<path d="M12.3019 37.9934C12.5721 36.9275 13.5433 36.0337 13.5433 36.0337C16.9598 32.6075 22.5956 32.5148 26.1352 35.8218C26.1352 35.8218 27.1816 36.8017 27.6775 37.9934" stroke="#333333" stroke-width="1.6" stroke-miterlimit="10" stroke-linecap="round"/>
</svg>
