<svg width="40" height="40" viewBox="0 0 40 40" fill="none" xmlns="http://www.w3.org/2000/svg">
<g clip-path="url(#clip0_374_6544)">
<path d="M8.08148 14.5577C7.10534 8.13507 14.5592 3.01735 20.0758 8.54016C20.0758 8.54016 17.1593 1.57016 10.5054 2.02472C6.96205 2.26592 3.77392 4.42743 2.14105 7.69288C1.08729 9.79872 0.47534 12.6807 1.60372 16.2832C2.0097 17.5851 2.6127 18.8127 3.36197 19.9352C3.65153 20.3681 3.959 20.7887 4.29333 21.1876C5.75904 22.9533 8.54716 25.7889 11.3353 28.2194C11.3353 28.2194 18.2757 34.1041 19.9295 38.0003C19.9295 33.031 17.8787 27.9659 14.7652 24.2397C12.4069 21.4195 8.70836 18.655 8.08446 14.5546L8.08148 14.5577Z" fill="#DDDDDD"/>
<path d="M15.7772 17.4703H19.5265L21.1654 21.7779L22.3206 17.4703L23.4759 13.1628L25.1147 17.4703H27.5715L29.2103 21.7779L30.3656 17.4703L31.5208 13.1628L33.1597 17.4703H33.2134C36.8762 17.4703 39.6792 13.9637 38.8553 10.2653C38.6762 9.45824 38.3986 8.66043 38.0195 7.88118C36.4194 4.59718 33.2552 2.40166 29.7118 2.12335C23.0639 1.59766 20.0788 8.53674 20.0788 8.53674C20.0788 8.53674 17.1623 1.56674 10.5084 2.02131C6.96506 2.2625 3.77693 4.42401 2.14406 7.68946C1.08732 9.79839 0.475363 12.6804 1.60375 16.2829C2.00973 17.5848 2.61272 18.8124 3.36199 19.9349C3.65155 20.3678 3.95902 20.7884 4.29336 21.1873C5.75906 22.953 8.54718 25.7886 11.3353 28.2191C11.3353 28.2191 18.2758 34.1037 19.9295 38C21.6251 34.1223 28.6223 28.3119 28.6223 28.3119C30.7268 26.5153 32.7119 24.6197 34.2612 22.9839" stroke="#333333" stroke-width="1.6" stroke-miterlimit="10" stroke-linecap="round"/>
</g>
<defs>
<clipPath id="clip0_374_6544">
<rect width="40" height="40" fill="white"/>
</clipPath>
</defs>
</svg>
