<svg width="244" height="80" viewBox="0 0 244 80" fill="none" xmlns="http://www.w3.org/2000/svg">
<g clip-path="url(#clip0_255_64076)">
<path d="M195.47 63.92C192.1 63.92 189.37 66.66 189.37 70.02C189.37 73.38 192.11 76.12 195.47 76.12C198.83 76.12 201.57 73.38 201.57 70.02C201.57 66.66 198.83 63.92 195.47 63.92ZM195.47 74.02C193.27 74.02 191.48 72.23 191.48 70.03C191.48 67.83 193.27 66.04 195.47 66.04C197.67 66.04 199.46 67.83 199.46 70.03C199.46 72.23 197.67 74.02 195.47 74.02Z" fill="white"/>
<path d="M130.18 66.3V75.06C130.18 75.65 129.7 76.13 129.11 76.13C128.52 76.13 128.04 75.65 128.04 75.06V66.3C128.04 65.71 128.52 65.23 129.11 65.23C129.7 65.23 130.18 65.71 130.18 66.3Z" fill="white"/>
<path d="M129.11 60.9C128.12 60.9 127.31 61.7 127.31 62.7C127.31 63.7 128.11 64.5 129.11 64.5C130.11 64.5 130.91 63.7 130.91 62.7C130.91 61.7 130.11 60.9 129.11 60.9Z" fill="white"/>
<path d="M132.23 14.46C135.43 14.46 138.43 15.72 140.65 18.02C141.83 19.24 143.78 19.27 145 18.09C146.22 16.91 146.25 14.96 145.07 13.74C141.67 10.24 137.11 8.31 132.23 8.31C122.37 8.31 114.36 16.3 114.36 26.12C114.36 35.94 122.38 43.94 132.23 43.94C136.86 43.94 141.26 42.18 144.6 38.98C145.83 37.8 145.87 35.86 144.7 34.63C143.52 33.4 141.58 33.36 140.35 34.53C138.16 36.62 135.28 37.78 132.24 37.78C125.78 37.78 120.53 32.55 120.53 26.12C120.53 19.69 125.79 14.46 132.24 14.46H132.23Z" fill="white"/>
<path d="M66.7197 23.15C65.8097 22.87 64.8596 22.6 63.8596 22.32C63.4597 22.21 63.0596 22.09 62.6396 21.98L61.6896 21.71C60.6396 21.42 59.6496 21.14 58.7496 20.84C54.8196 19.55 54.5096 18.53 54.5096 17.22C54.5096 15.52 56.1596 13.86 58.6196 13.07C60.6696 12.4 63.0496 12.46 65.0596 13.27C65.8596 13.59 66.6096 14.02 67.2896 14.55C67.9697 15.08 68.6296 15.65 68.9596 16.43C69.0696 16.68 69.1296 16.95 69.1296 17.22C69.1296 18.88 70.4796 20.23 72.1396 20.23C73.7996 20.23 75.1497 18.88 75.1497 17.22C75.1497 15.51 74.5897 13.86 73.6197 12.47C72.7397 11.21 71.5796 10.18 70.3196 9.31002C68.5296 8.07002 66.5297 7.18002 64.3697 6.84002C64.2697 6.82002 64.1697 6.83002 64.0797 6.81002C62.7497 6.66002 61.4097 6.64002 60.0797 6.76002C59.0897 6.85002 58.0997 7.01002 57.1297 7.25002L56.9396 7.30002C51.8296 8.90002 48.5196 12.79 48.5196 17.22C48.5196 23.82 54.3897 25.74 56.8997 26.56C57.9197 26.89 58.9697 27.19 60.0797 27.5L61.0096 27.76C61.4296 27.88 61.8396 28 62.2496 28.11C63.2096 28.38 64.1096 28.63 64.9496 28.89C69.6696 30.35 70.0097 31.48 70.0097 33.16C70.0097 35.19 68.0496 37.11 65.1296 37.98C62.9396 38.4 60.7297 38.4 58.5396 37.98C55.6196 37.11 53.6596 35.19 53.6596 33.16C53.6596 31.5 52.3097 30.15 50.6497 30.15C48.9897 30.15 47.6396 31.5 47.6396 33.16C47.6396 37.93 51.3996 42.2 56.9996 43.79L57.2296 43.85C58.7496 44.16 60.2897 44.31 61.8297 44.31C63.3697 44.31 64.8996 44.16 66.4296 43.85L66.6597 43.79C72.2597 42.2 76.0196 37.92 76.0196 33.16C76.0196 26.02 69.7497 24.08 66.7297 23.15H66.7197Z" fill="white"/>
<path d="M108.2 8.29999C106.5 8.29999 105.12 9.67999 105.12 11.38V28.7C105.12 34.04 101.45 37.77 96.1901 37.77C90.9301 37.77 87.2601 34.04 87.2601 28.7V11.38C87.2601 9.67999 85.8801 8.29999 84.1801 8.29999C82.4801 8.29999 81.1001 9.67999 81.1001 11.38V28.7C81.1001 37.53 87.4501 43.93 96.1901 43.93C104.93 43.93 111.28 37.52 111.28 28.7V11.38C111.28 9.67999 109.9 8.29999 108.2 8.29999Z" fill="white"/>
<path d="M29.2101 8.29999C20.4701 8.29999 14.1201 14.71 14.1201 23.53V40.85C14.1201 42.55 15.5001 43.93 17.2001 43.93C18.9001 43.93 20.2801 42.55 20.2801 40.85V23.53C20.2801 18.19 23.9501 14.46 29.2101 14.46C34.4701 14.46 38.1401 18.19 38.1401 23.53V40.85C38.1401 42.55 39.5201 43.93 41.2201 43.93C42.9201 43.93 44.3001 42.55 44.3001 40.85V23.53C44.3001 14.7 37.9501 8.29999 29.2101 8.29999Z" fill="white"/>
<path d="M225.52 8.29998C215.66 8.29998 207.65 16.29 207.65 26.11C207.65 35.93 215.67 43.93 225.52 43.93C230.61 43.93 235.48 41.75 238.87 37.96C240 36.69 239.89 34.75 238.63 33.61C237.36 32.48 235.42 32.59 234.28 33.85C232.06 36.34 228.87 37.76 225.52 37.76C220.13 37.76 215.58 34.12 214.22 29.18H240.31C242.01 29.18 243.39 27.8 243.39 26.1C243.39 16.28 235.37 8.28998 225.52 8.28998V8.29998ZM225.52 14.46C230.91 14.46 235.46 18.1 236.82 23.04H214.23C215.59 18.1 220.14 14.46 225.53 14.46H225.52Z" fill="white"/>
<path d="M164.71 8.29999C154.89 8.29999 146.9 16.29 146.9 26.11C146.9 35.93 154.89 43.92 164.71 43.92C174.53 43.92 182.52 35.93 182.52 26.11C182.52 16.29 174.53 8.29999 164.71 8.29999ZM164.71 37.77C158.28 37.77 153.05 32.54 153.05 26.11C153.05 19.68 158.28 14.45 164.71 14.45C171.14 14.45 176.37 19.68 176.37 26.11C176.37 32.54 171.14 37.77 164.71 37.77Z" fill="white"/>
<path d="M206.68 8.29998H202.11C193.74 8.29998 186.93 15.11 186.93 23.48V40.85C186.93 42.55 188.31 43.93 190.01 43.93C191.71 43.93 193.09 42.55 193.09 40.85V23.47C193.09 18.5 197.14 14.45 202.11 14.45H206.68C208.38 14.45 209.76 13.07 209.76 11.37C209.76 9.66998 208.38 8.28998 206.68 8.28998V8.29998Z" fill="white"/>
<path d="M8.2601 15.57V40.85C8.2601 42.55 6.8801 43.93 5.1801 43.93C3.4801 43.93 2.1001 42.55 2.1001 40.85V15.57C2.1001 13.87 3.4801 12.49 5.1801 12.49C6.8801 12.49 8.2601 13.87 8.2601 15.57Z" fill="white"/>
<path d="M5.18 0C2.32 0 0 2.32 0 5.18C0 8.04 2.32 10.36 5.18 10.36C8.04 10.36 10.36 8.04 10.36 5.18C10.36 2.32 8.04 0 5.18 0Z" fill="white"/>
<path d="M183.46 0C180.6 0 178.28 2.32 178.28 5.18C178.28 8.04 180.6 10.36 183.46 10.36C186.32 10.36 188.64 8.04 188.64 5.18C188.64 2.32 186.32 0 183.46 0Z" fill="#0073F0"/>
<path d="M138.3 66.02C139.4 66.02 140.42 66.45 141.19 67.24C141.6 67.66 142.26 67.67 142.68 67.26C143.1 66.85 143.11 66.19 142.7 65.77C141.54 64.57 139.97 63.91 138.3 63.91C134.92 63.91 132.18 66.65 132.18 70.01C132.18 73.37 134.93 76.11 138.3 76.11C139.89 76.11 141.39 75.51 142.54 74.41C142.96 74.01 142.98 73.34 142.57 72.92C142.17 72.5 141.5 72.48 141.08 72.89C140.33 73.61 139.34 74 138.3 74C136.09 74 134.29 72.21 134.29 70.01C134.29 67.81 136.09 66.02 138.3 66.02Z" fill="white"/>
<path d="M121.14 63.92C119.91 63.92 118.77 64.45 117.91 65.41C117.83 65.5 117.76 65.59 117.68 65.69C116.85 64.61 115.61 63.93 114.23 63.93C113 63.93 111.85 64.46 111 65.42C110.18 66.35 109.72 67.57 109.72 68.86V75.08C109.72 75.66 110.19 76.14 110.78 76.14C111.37 76.14 111.84 75.67 111.84 75.08V68.86C111.84 68.08 112.1 67.36 112.58 66.82C113.03 66.32 113.62 66.04 114.24 66.04C115.56 66.04 116.64 67.31 116.64 68.86V75.08C116.64 75.66 117.11 76.14 117.7 76.14C118.29 76.14 118.76 75.67 118.76 75.08V68.86C118.76 68.08 119.02 67.36 119.5 66.82C119.95 66.32 120.54 66.04 121.16 66.04C122.48 66.04 123.56 67.31 123.56 68.86V75.08C123.56 75.66 124.03 76.14 124.62 76.14C125.21 76.14 125.68 75.67 125.68 75.08V68.86C125.68 66.14 123.66 63.93 121.17 63.93L121.14 63.92Z" fill="white"/>
<path d="M172.92 63.74C169.55 63.74 166.82 66.48 166.82 69.84V78.27C166.82 78.85 167.29 79.33 167.88 79.33C168.47 79.33 168.94 78.86 168.94 78.27V74.45C170.01 75.38 171.41 75.94 172.93 75.94C176.3 75.94 179.03 73.2 179.03 69.84C179.03 66.48 176.29 63.74 172.93 63.74H172.92ZM172.92 73.84C170.72 73.84 168.93 72.05 168.93 69.85C168.93 67.65 170.72 65.86 172.92 65.86C175.12 65.86 176.91 67.65 176.91 69.85C176.91 72.05 175.12 73.84 172.92 73.84Z" fill="white"/>
<path d="M159.45 63.92C156.08 63.92 153.35 66.66 153.35 70.02C153.35 73.38 156.09 76.12 159.45 76.12C162.81 76.12 165.55 73.38 165.55 70.02C165.55 66.66 162.81 63.92 159.45 63.92ZM159.45 74.02C157.25 74.02 155.46 72.23 155.46 70.03C155.46 67.83 157.25 66.04 159.45 66.04C161.65 66.04 163.44 67.83 163.44 70.03C163.44 72.23 161.65 74.02 159.45 74.02Z" fill="white"/>
<path d="M187.56 63.92H185.99C183.12 63.92 180.79 66.25 180.79 69.12V75.07C180.79 75.65 181.26 76.13 181.85 76.13C182.44 76.13 182.91 75.66 182.91 75.07V69.12C182.91 67.42 184.3 66.03 186 66.03H187.57C188.15 66.03 188.63 65.56 188.63 64.97C188.63 64.38 188.16 63.91 187.57 63.91L187.56 63.92Z" fill="white"/>
<path d="M151.02 63.92H149.45C146.58 63.92 144.25 66.25 144.25 69.12V75.07C144.25 75.65 144.72 76.13 145.31 76.13C145.9 76.13 146.37 75.66 146.37 75.07V69.12C146.37 67.42 147.76 66.03 149.46 66.03H151.03C151.61 66.03 152.09 65.56 152.09 64.97C152.09 64.38 151.62 63.91 151.03 63.91L151.02 63.92Z" fill="white"/>
<path d="M230.26 66.02C231.36 66.02 232.38 66.45 233.15 67.24C233.56 67.66 234.22 67.67 234.64 67.26C235.06 66.85 235.07 66.19 234.66 65.77C233.5 64.57 231.93 63.91 230.26 63.91C226.88 63.91 224.14 66.65 224.14 70.01C224.14 73.37 226.89 76.11 230.26 76.11C231.85 76.11 233.35 75.51 234.5 74.41C234.92 74.01 234.94 73.34 234.53 72.92C234.13 72.5 233.46 72.48 233.04 72.89C232.29 73.61 231.3 74 230.26 74C228.05 74 226.25 72.21 226.25 70.01C226.25 67.81 228.05 66.02 230.26 66.02Z" fill="white"/>
<path d="M216.75 63.91C213.37 63.91 210.63 66.65 210.63 70.01C210.63 73.37 213.38 76.11 216.75 76.11C218.49 76.11 220.16 75.36 221.32 74.07C221.71 73.64 221.67 72.97 221.24 72.58C220.81 72.19 220.14 72.23 219.75 72.66C218.99 73.51 217.89 74 216.75 74C214.9 74 213.35 72.75 212.88 71.06H221.82C222.4 71.06 222.88 70.59 222.88 70C222.88 66.63 220.13 63.9 216.76 63.9L216.75 63.91ZM216.75 66.02C218.6 66.02 220.15 67.27 220.62 68.96H212.88C213.35 67.27 214.9 66.02 216.75 66.02Z" fill="white"/>
<path d="M208.96 73.98C207.81 73.98 206.88 73.05 206.88 71.9V71.29V67.15H207.75C208.33 67.15 208.81 66.68 208.81 66.1C208.81 65.52 208.34 65.05 207.75 65.05H206.88V61.96C206.88 61.38 206.41 60.91 205.83 60.91C205.25 60.91 204.77 61.38 204.77 61.96V65.05H203.9C203.32 65.05 202.85 65.52 202.85 66.1C202.85 66.68 203.32 67.15 203.9 67.15H204.77V71.9C204.77 74.21 206.65 76.09 208.96 76.09C209.54 76.09 210.01 75.62 210.01 75.04C210.01 74.46 209.54 73.98 208.96 73.98Z" fill="white"/>
<path d="M242.34 73.98C241.19 73.98 240.26 73.05 240.26 71.9V71.29V67.15H241.13C241.71 67.15 242.19 66.68 242.19 66.1C242.19 65.52 241.72 65.05 241.13 65.05H240.26V61.96C240.26 61.38 239.79 60.91 239.21 60.91C238.63 60.91 238.15 61.38 238.15 61.96V65.05H237.28C236.7 65.05 236.23 65.52 236.23 66.1C236.23 66.68 236.7 67.15 237.28 67.15H238.15V71.9C238.15 74.21 240.03 76.09 242.34 76.09C242.92 76.09 243.39 75.62 243.39 75.04C243.39 74.46 242.92 73.98 242.34 73.98Z" fill="white"/>
</g>
<defs>
<clipPath id="clip0_255_64076">
<rect width="243.39" height="79.33" fill="white"/>
</clipPath>
</defs>
</svg>
